<?xml version="1.0" encoding="utf-8"?>
<!-- Generator: Adobe Illustrator 18.0.0, SVG Export Plug-In . SVG Version: 6.00 Build 0)  -->
<!DOCTYPE svg PUBLIC "-//W3C//DTD SVG 1.1//EN" "http://www.w3.org/Graphics/SVG/1.1/DTD/svg11.dtd">
<svg version="1.1" id="Layer_1" xmlns="http://www.w3.org/2000/svg" xmlns:xlink="http://www.w3.org/1999/xlink" x="0px" y="0px"
	 viewBox="0 0 218.8 195.4" enable-background="new 0 0 218.8 195.4" xml:space="preserve">
<g id="VVvT8A.tif">
	<g>
		<path fill="#FFFFFF" d="M112.4,0c4.1,0.7,8.2,1.2,12.2,2.1c9.9,2.2,19,5.9,26.4,13.3c6.3,6.2,9.7,13.9,10.8,22.5
			c0.7,5.3,1,10.8,1,16.2c0.1,17.8,0.2,35.7,0,53.5c-0.1,9.2,2.4,17.4,8.1,24.6c1.3,1.6,2.5,3.3,3.5,5.1c1.6,2.9,1.1,4.9-1.4,7
			c-6.7,5.8-13.5,11.7-20.2,17.5c-4,3.5-6.8,3.7-10.4-0.1c-4.2-4.3-7.9-8.9-11.8-13.5c-1-1.1-1.7-2.4-2.6-3.7
			c-2.7,2.4-5.2,4.8-7.7,7c-9.9,8.9-21.5,13.2-34.8,13.7c-7.6,0.3-15-0.1-22.1-2.7c-11.6-4.2-19.6-12.2-23.4-23.9
			c-4.6-13.9-4.3-27.7,1.8-41.1c6.7-14.7,18.8-23.3,34.1-27.4c9.8-2.6,20-3.9,30.1-5.5c5.2-0.8,10.4-1.1,16.1-1.7c0-1,0-2,0-3.1
			c-0.2-4.6,0-9.2-0.6-13.7c-1.2-8.4-5.9-13.2-14.3-14.7c-8.5-1.5-16.2,0.2-22.5,6.6c-2.7,2.7-4.2,6.2-5.1,9.8
			c-1.2,4.9-3.1,6.1-8.1,5.5c-8-1-16-1.8-24.1-2.7c-4.7-0.6-6.2-2.9-5.2-7.6c4-18.3,15-30.6,32.3-37.4c7.4-2.9,15.1-4.5,23-5.1
			c0.8-0.1,1.6-0.3,2.4-0.5C104.1,0,108.2,0,112.4,0z M122.1,85.7c-6.4,0.8-12.5,1.3-18.4,2.2c-6,1-11.6,3.1-16.1,7.3
			c-8.1,7.5-9.6,17-7.2,27.2c2.7,11.3,12.9,16.4,23.7,12.1c8-3.2,12.5-9.7,15.3-17.4C123.1,107.2,121.8,96.8,122.1,85.7z"/>
		<path fill="#FFFFFF" d="M97.9,195.4c-35.2-0.3-67.1-10.5-95.5-31.2c-1.1-0.8-2.6-2.8-2.3-3.4c1.1-2.1,2.9-0.5,4.3,0.1
			c17.1,7.8,35,13.2,53.5,16.2c8.8,1.4,17.8,2.2,26.7,2.6c8.5,0.4,17,0.5,25.4-0.1c21.9-1.5,43.2-6.4,63.6-14.6
			c6.9-2.8,13.5-6.1,20.2-9.2c0.8-0.3,1.5-0.7,2.3-1c1.6-0.7,3-0.3,4,1.1c1.1,1.5,0.3,2.8-0.8,3.7c-2.8,2.4-5.7,4.9-8.7,7.1
			c-17.7,12.6-37.5,20.6-58.7,25.2C120.7,194.2,109.4,195.4,97.9,195.4z"/>
		<path fill="#FFFFFF" d="M218.8,146.3c-0.3,10-2.9,19.2-8.9,27.3c-0.7,1-1.5,2-2.5,2.8c-0.6,0.5-1.4,0.5-2.2,0.8
			c-0.1-0.7-0.4-1.5-0.2-2.2c1.4-5.8,3-11.6,4.2-17.4c0.5-2.4,0.4-5,0.4-7.4c0-2.1-1.2-3.7-3.3-3.8c-4.4-0.2-8.9-0.2-13.4,0.2
			c-3.9,0.4-7.8,1.5-11.7,2.1c-0.8,0.1-1.7-0.3-2.5-0.5c0.4-0.8,0.6-1.7,1.2-2.2c6.1-5,13.4-7.4,21.1-8.2c3.9-0.4,7.9-0.4,11.9-0.1
			c5,0.4,5.8,1.4,5.9,6.4C218.8,144.8,218.8,145.6,218.8,146.3z"/>
	</g>
</g>
</svg>
