<?xml version="1.0" encoding="utf-8"?>
<!-- Generator: Adobe Illustrator 17.0.2, SVG Export Plug-In . SVG Version: 6.00 Build 0)  -->
<!DOCTYPE svg PUBLIC "-//W3C//DTD SVG 1.1//EN" "http://www.w3.org/Graphics/SVG/1.1/DTD/svg11.dtd">
<svg version="1.1" id="Layer_1" xmlns="http://www.w3.org/2000/svg" xmlns:xlink="http://www.w3.org/1999/xlink" x="0px" y="0px"
	 viewBox="0 0 360 360" enable-background="new 0 0 360 360" xml:space="preserve">
<g>
	<g>
		<path fill="#FFFFFF" d="M180.508,10.008C86.4,10.008,9.84,86.568,9.84,180.675S86.4,351.354,180.508,351.354
			s170.679-76.571,170.679-170.679S274.615,10.008,180.508,10.008z M338.324,180.675c0,87.022-70.794,157.816-157.816,157.816
			c-87.011,0-157.805-70.794-157.805-157.816c0-87.011,70.794-157.805,157.805-157.805C267.53,22.87,338.324,93.664,338.324,180.675
			z"/>
	</g>
	<g>
		<path fill="#FFFFFF" d="M180.508,31.217c-82.414,0-149.458,67.044-149.458,149.458c0,82.42,67.044,149.475,149.458,149.475
			c82.42,0,149.475-67.055,149.475-149.475C329.983,98.261,262.928,31.217,180.508,31.217z M318.367,180.676
			c0,76.023-61.837,137.86-137.86,137.86c-76.011,0-137.849-61.837-137.849-137.86c0-76.011,61.837-137.849,137.849-137.849
			C256.53,42.827,318.367,104.664,318.367,180.676z"/>
	</g>
	<g>
		<path fill="#FFFFFF" d="M281.999,255.535h-39.578v-56.2h-27.424v56.2h-39.578v-55.809h-56.566v15.506h45.988v40.303H79.028
			V105.703h85.812v39.968h-46.185v14.472h56.763v-54.44h39.578v54.359h27.216v-54.359h39.786V255.535z M256.014,241.929h12.392
			V119.296h-12.588v54.359h-54.402v-54.359h-12.404v54.44h-83.95v-41.658h46.185v-12.782H92.646v122.633h58.601v-13.104h-45.988
			V186.12h83.753v55.809h12.404v-56.188h54.598V241.929z"/>
	</g>
</g>
</svg>
